<?xml version="1.0" encoding="UTF-8"?>
<svg id="Capa_1" xmlns="http://www.w3.org/2000/svg" version="1.1" viewBox="0 0 800 800">
  <!-- Generator: Adobe Illustrator 29.8.3, SVG Export Plug-In . SVG Version: 2.1.1 Build 3)  -->
  <defs>
    <style>
      .st0 {
        fill: #bc2d1f;
      }
    </style>
  </defs>
  <path class="st0" d="M399.98,66.93C179.08,66.93,0,216.05,0,400s179.08,333.06,399.98,333.06,400.02-149.07,400.02-333.06S620.9,66.93,399.98,66.93ZM599.22,610.23h-65.3c-5.22-57.73-46.92-104.79-101.83-118.28v122.84h-64.19v-122.83c-54.89,13.49-96.57,60.53-101.8,118.28h-65.32c5.69-93.74,76.11-169.83,167.13-184.58v-51.29c-91-14.75-161.43-90.84-167.13-184.57h65.32c5.23,57.7,46.92,104.78,101.8,118.24v-122.86h64.19v122.87c54.92-13.46,96.61-60.54,101.83-118.24h65.3c-5.69,93.73-76.12,169.82-167.13,184.57v51.3c91.01,14.73,161.44,90.81,167.13,184.55Z"/>
</svg>